# xmcd
#
# Track frame offsets:
#	150
#	20525
#	37922
#	55742
#	71220
#	91530
#	105302
#	116485
#	132830
#	147172
#	163715
#	179780
#	195177
#	208825
#	224255
#	242255
#
# Disc length: 3488 seconds
#
# Revision: 1
# Processed by: cddbd v1.5.2PL0 Copyright (c) Steve Scherf et al.
# Submitted via: EasyCDDAExtractor 15.3.0.1
#
DISCID=d70d9e10
DTITLE=ฤทธิพร อินสว่าง - 16 ปี 16 เพลงรัก
DYEAR=2004
DGENRE=Other
TTITLE0=ใบไผ่
TTITLE1=ธุลี
TTITLE2=คำสารภาพ
TTITLE3=เต็มใจให้
TTITLE4=นางฟ้า
TTITLE5=อ้อมแขนแห่งรัก
TTITLE6=เรือ
TTITLE7=สุดแต่ใจเธอ
TTITLE8=เพียงถ้อยคำ
TTITLE9=เธอผู้ห่างไกล
TTITLE10=ร้องไห้สิเธอ
TTITLE11=คืนหนาว
TTITLE12=กำลังใจ
TTITLE13=ฉันจะอยู่อย่างไร
TTITLE14=ผิงดาว
TTITLE15=รักและศรัทธา
EXTD=YEAR: 2004
EXTT0=
EXTT1=
EXTT2=
EXTT3=
EXTT4=
EXTT5=
EXTT6=
EXTT7=
EXTT8=
EXTT9=
EXTT10=
EXTT11=
EXTT12=
EXTT13=
EXTT14=
EXTT15=
PLAYORDER=
